<svg height="478" width="720" xmlns="http://www.w3.org/2000/svg">
<rect height="478" fill="#555" width="720"></rect>
<text fill="#7f7" font-family="Courier New" font-size="12" xml:space="preserve">
<tspan x="10" y="26">2017-04-28 00:41:13 +0800</tspan>
<tspan x="10" y="42">[npm publishAfterCommitAfterBuild]</tspan>
<tspan x="10" y="58">2017-04-18 16:56:20 +0000</tspan>
<tspan x="10" y="74">[ci skip] npm published</tspan>
<tspan x="10" y="90"></tspan>
<tspan x="10" y="106">2017-04-18 17:04:15 +0800</tspan>
<tspan x="10" y="122">[npm publishAfterCommitAfterBuild]</tspan>
<tspan x="10" y="138">2017-04-18 07:22:13 +0000</tspan>
<tspan x="10" y="154">[ci skip] npm published</tspan>
<tspan x="10" y="170"></tspan>
<tspan x="10" y="186">2017-04-18 03:59:26 +0800</tspan>
<tspan x="10" y="202">[npm publishAfterCommitAfterBuild]</tspan>
<tspan x="10" y="218">2017-04-04 07:34:45 +0000</tspan>
<tspan x="10" y="234">[ci skip] npm published</tspan>
<tspan x="10" y="250"></tspan>
<tspan x="10" y="266">2017-04-04 07:32:58 +0000</tspan>
<tspan x="10" y="282">[npm publishAfterCommit]</tspan>
<tspan x="10" y="298"></tspan>
<tspan x="10" y="314">2017-04-04 14:48:42 +0800</tspan>
<tspan x="10" y="330">[npm publishAfterCommitAfterBuild]</tspan>
<tspan x="10" y="346">2017-04-03 14:02:17 +0000</tspan>
<tspan x="10" y="362">[npm publishAfterCommit]</tspan>
<tspan x="10" y="378"></tspan>
<tspan x="10" y="394">2017-04-03 12:19:30 +0000</tspan>
<tspan x="10" y="410">[npm publishAfterCommitAfterBuild]</tspan>
<tspan x="10" y="426"></tspan>
<tspan x="10" y="442">2014-03-26 02:31:50 +0700</tspan>
<tspan x="10" y="458">add blank README.md</tspan>
</text>
</svg>
